<?xml version="1.0" encoding="UTF-8"?>
<svg width="31px" height="31px" viewBox="0 0 31 31" version="1.1" xmlns="http://www.w3.org/2000/svg" xmlns:xlink="http://www.w3.org/1999/xlink">
    <title>tabIconTeamSelect</title>
    <g id="tabIconTeamSelect" stroke="none" stroke-width="1" fill="none" fill-rule="evenodd">
        <g id="Group" transform="translate(0.000000, 9.999689)" fill="#FFFFFF">
            <path d="M25.735109,8.15661086 L25.735109,6.58961086 L26.032109,6.58961086 C26.899109,6.58961086 27.766109,6.59861086 28.633109,6.58561086 C29.172109,6.57861086 29.536109,6.80061086 29.732109,7.30661086 C29.841109,7.58561086 29.967109,7.85661086 30.096109,8.15661086 L25.735109,8.15661086 Z M7.38410899,5.07461086 C7.19010899,4.86961086 7.02210899,4.64161086 6.84410899,4.42261086 L6.75310899,4.45561086 C6.83210899,4.39861086 6.91110899,4.33861086 6.99210899,4.28361086 C8.04710899,3.57961086 9.09110899,2.85761086 10.163109,2.18061086 C10.732109,1.82261086 11.387109,1.69261086 12.096109,1.69061086 C12.096109,2.27061086 12.100109,2.83261086 12.088109,3.39461086 C12.087109,3.44961086 11.987109,3.54561086 11.927109,3.55061086 C10.956109,3.63361086 10.126109,4.07261086 9.28810899,4.52461086 C8.78110899,4.79761086 8.21110899,4.95461086 7.66310899,5.14761086 C7.58510899,5.17461086 7.44110899,5.13561086 7.38410899,5.07461086 L7.38410899,5.07461086 Z M0.933108989,2.63561086 L4.08510899,2.63561086 L4.08510899,1.69661086 L0.933108989,1.69661086 L0.933108989,2.63561086 Z M5.00810899,8.65361086 C4.12910899,8.65261086 3.41210899,7.94561086 3.40110899,7.06761086 C3.39010899,6.19461086 4.13610899,5.44261086 5.01010899,5.44360987 C5.89510899,5.44461086 6.61710899,6.17961086 6.61010899,7.06961086 C6.60210899,7.95161086 5.89210899,8.65361086 5.00810899,8.65361086 L5.00810899,8.65361086 Z M21.637109,8.65361086 C20.741109,8.65961086 20.023109,7.94661086 20.0241079,7.05161086 C20.025109,6.17361086 20.735109,5.45561086 21.611109,5.44361086 C22.482109,5.43261086 23.236109,6.18161086 23.234113,7.05561086 C23.231109,7.92961086 22.514109,8.64761086 21.637109,8.65361086 L21.637109,8.65361086 Z M30.508109,6.82161086 C30.161109,6.06761086 29.565109,5.68061086 28.739109,5.68861086 C28.438109,5.69161086 28.209109,5.60461086 27.972109,5.42361086 C26.469109,4.27461086 24.781109,3.55361086 22.901109,3.30361086 C21.333109,3.09461086 19.763109,2.89961086 18.194109,2.68861086 C17.409109,2.58261086 17.095109,2.75761086 16.843109,3.48361086 C15.569109,3.48361086 14.295109,3.48361086 13.006109,3.48361086 C13.006109,2.91361086 13.007109,2.36961086 13.005109,1.82561086 C13.004109,1.47861086 12.934109,1.13861086 12.615109,0.958610862 C12.380109,0.826610862 12.269109,0.693610862 12.270109,0.413610862 C12.271109,0.164610862 12.083109,0.0156108622 11.830109,0.000610862229 C11.595109,-0.0123891378 11.405109,0.183610862 11.385109,0.444610862 C11.375109,0.563610862 11.383109,0.683610862 11.383109,0.831610862 C10.273109,0.962610862 9.39010899,1.54061086 8.51910899,2.14861086 C7.75010899,2.68561086 6.95110899,3.17961086 6.20010899,3.73961086 C5.82810899,4.01761086 5.47010899,4.05661086 5.02010899,3.92961086 L5.02010899,3.61761086 C5.02010899,2.94161086 5.02210899,2.26561086 5.01910899,1.58961086 C5.01610899,1.01961086 4.77410899,0.773610862 4.21310899,0.772610862 C3.07310899,0.770610862 1.93310899,0.770610862 0.793108989,0.772610862 C0.245108989,0.774610862 0.00510898895,1.01861086 0.00410898895,1.57261086 C0.00110898895,2.37961086 0.00910898895,3.18661086 0,3.99361086 C-0.00389101105,4.29161086 0.102108989,4.51461086 0.335108989,4.69661086 C0.844108989,5.09361086 1.34010899,5.50861086 1.85310899,5.89961086 C2.02110899,6.02761086 2.06110899,6.13961086 2.01010899,6.35161086 C1.65710899,7.79961086 2.37610899,9.22361086 3.77610899,9.88661086 C5.00010899,10.4676109 6.57510899,10.0656109 7.44110899,8.94161086 C7.55410899,8.79461086 7.67110899,8.75061086 7.84710899,8.75061086 C9.39010899,8.75661086 14.845109,8.73761086 14.845109,8.73761086 C14.933109,8.73661086 14.965109,8.73061086 15.025109,8.72761086 C15.922109,8.69261086 16.773109,8.46061086 17.604109,8.13361086 C17.928109,8.00561086 18.262109,7.90261086 18.587109,7.78961086 C19.382109,9.47361086 20.278109,10.2126109 21.655109,10.1346109 C23.521109,10.0276109 24.501109,8.91461086 24.780109,7.10161086 C24.811109,7.23961086 24.817109,7.36661086 24.810109,7.49361086 C24.737109,8.81861086 25.054109,9.13261086 26.410109,9.08661086 C27.538109,9.04861086 28.669109,9.06061086 29.799109,9.08661086 C30.385109,9.09961086 30.791109,8.89761086 31.000109,8.34061086 L31.000109,7.91661086 C30.836109,7.55161086 30.676109,7.18561086 30.508109,6.82161086 L30.508109,6.82161086 Z" id="Fill-1"></path>
            <path d="M21.630009,6.35551086 C21.260009,6.35051086 20.939009,6.67051086 20.936009,7.04751086 C20.933009,7.43151086 21.236009,7.73951086 21.620009,7.74152046 C21.999009,7.74351086 22.318009,7.43251086 22.320009,7.05751086 C22.323009,6.69251086 21.996009,6.36051086 21.630009,6.35551086" id="Fill-4"></path>
            <path d="M5.00130899,6.35441086 C4.63730899,6.36041086 4.30730899,6.69841086 4.31230899,7.06041086 C4.31730899,7.43541086 4.63930899,7.74641086 5.01730899,7.74241086 C5.40030899,7.73841086 5.70430899,7.42741086 5.70030899,7.04441086 C5.69530899,6.67141086 5.36930899,6.34841086 5.00130899,6.35441086" id="Fill-6"></path>
        </g>
    </g>
</svg>