<?xml version="1.0" encoding="UTF-8"?>
<svg width="31px" height="31px" viewBox="0 0 31 31" version="1.1" xmlns="http://www.w3.org/2000/svg" xmlns:xlink="http://www.w3.org/1999/xlink">
    <title>tabIconTeamUnselect</title>
    <defs>
        <polygon id="path-1" points="-1.66533454e-16 0 30.999909 0 30.999909 10.1508552 -1.66533454e-16 10.1508552"></polygon>
    </defs>
    <g id="tabIconTeamUnselect" stroke="none" stroke-width="1" fill="none" fill-rule="evenodd">
        <g id="Group-21" transform="translate(0.000091, 10.000089)">
            <g id="Group-3">
                <mask id="mask-2" fill="white">
                    <use xlink:href="#path-1"></use>
                </mask>
                <g id="Clip-2"></g>
                <path d="M23.067109,4.25661086 C23.125109,4.32361086 23.139109,4.35061086 23.161109,4.36361086 C23.813109,4.75961086 24.280109,5.30561086 24.538109,6.02961086 C24.603109,6.21261086 24.857109,6.23561086 24.997109,6.06361086 C25.236109,5.77061086 25.545109,5.67361086 25.906109,5.67961086 C26.158109,5.68361086 26.410109,5.68061086 26.662109,5.68061086 C25.566109,4.94961086 24.397109,4.47061086 23.067109,4.25661086 L23.067109,4.25661086 Z M0.933108989,2.63561086 L4.08510899,2.63561086 L4.08510899,1.69661086 L0.933108989,1.69661086 L0.933108989,2.63561086 Z M2.40910899,5.18661086 C2.89310899,4.84161086 3.30510899,4.50561086 3.75810899,4.23861086 C4.13010899,4.02061086 4.15110899,4.05761086 4.07910899,3.57161086 L0.865108989,3.57161086 C0.919108989,3.75761086 0.915108989,3.96561086 1.01610899,4.05461086 C1.48310899,4.46461086 1.97910899,4.84261086 2.40910899,5.18661086 L2.40910899,5.18661086 Z M25.735109,8.15661086 L30.096109,8.15661086 C29.967109,7.85661086 29.841109,7.58461086 29.732109,7.30661086 C29.536109,6.80061086 29.172109,6.57761086 28.633109,6.58561086 C27.766109,6.59761086 26.899109,6.58861086 26.032109,6.58861086 L25.735109,6.58861086 L25.735109,8.15661086 Z M4.99710899,4.87759144 C3.79710899,4.88261086 2.82910899,5.85661086 2.8311059,7.05561086 C2.83310899,8.24861086 3.81310899,9.23461086 5.00210899,9.23963682 C6.18910899,9.24561086 7.21710899,8.21061086 7.19310899,7.03561086 C7.16810899,5.83361086 6.19010899,4.87261086 4.99710899,4.87759144 L4.99710899,4.87759144 Z M21.662109,4.87861086 C20.448109,4.86061086 19.467109,5.81461086 19.441109,7.03661086 C19.417109,8.20961086 20.400109,9.21461086 21.595109,9.23961086 C22.772109,9.26361086 23.780109,8.27961086 23.799109,7.08661086 C23.818109,5.89061086 22.857109,4.89661086 21.662109,4.87861086 L21.662109,4.87861086 Z M6.75310899,4.45561086 C6.78310899,4.44461086 6.81410899,4.43361086 6.84410899,4.42261086 C7.02210899,4.64161086 7.19010899,4.86961086 7.38410899,5.07461086 C7.44110899,5.13561086 7.58510899,5.17461086 7.66310899,5.14761086 C8.21110899,4.95461086 8.78110899,4.79661086 9.28810899,4.52361086 C10.126109,4.07161086 10.956109,3.63361086 11.927109,3.54961086 C11.987109,3.54461086 12.087109,3.44961086 12.088109,3.39361086 C12.100109,2.83261086 12.096109,2.27061086 12.096109,1.69061086 C11.387109,1.69261086 10.732109,1.82161086 10.163109,2.18061086 C9.09110899,2.85761086 8.04710899,3.57961086 6.99210899,4.28361086 C6.91110899,4.33861086 6.83210899,4.39861086 6.75310899,4.45561086 L6.75310899,4.45561086 Z M31.000109,8.34061086 C30.791109,8.89761086 30.385109,9.09961086 29.799109,9.08561086 C28.669109,9.06061086 27.538109,9.04861086 26.410109,9.08661086 C25.054109,9.13161086 24.737109,8.81861086 24.810109,7.49361086 C24.817109,7.36661086 24.811109,7.23961086 24.780109,7.10161086 C24.501109,8.91461086 23.521109,10.0276109 21.655109,10.1336109 C20.278109,10.2126109 19.382109,9.47261086 18.587109,7.78961086 C18.262109,7.90161086 17.928109,8.00461086 17.604109,8.13261086 C16.773109,8.46061086 15.922109,8.69161086 15.025109,8.72761086 C14.965109,8.72961086 14.904109,8.74461086 14.845109,8.73761086 C14.599109,8.70961086 14.425109,8.59461086 14.402109,8.32661086 C14.380109,8.07061086 14.522109,7.86561086 14.799109,7.85261086 C15.917109,7.79961086 16.935109,7.39261086 17.978109,7.04761086 C18.380109,6.91461086 18.537109,6.76761086 18.636109,6.33861086 C18.926109,5.09161086 19.765109,4.33461086 21.010109,3.97161086 C19.945109,3.83261086 18.881109,3.69261086 17.811109,3.55261086 C17.791109,3.60961086 17.773109,3.64461086 17.765109,3.68261086 C17.646109,4.20361086 17.392109,4.41461086 16.854109,4.41561086 C15.613109,4.41961086 14.372109,4.44161086 13.132109,4.41061086 C11.894109,4.37961086 10.773109,4.67561086 9.71310899,5.32461086 C9.18010899,5.65061086 8.56310899,5.84061086 8.02510899,6.07461086 L8.02510899,7.84561086 L8.34610899,7.84561086 C9.71810899,7.84561086 11.090109,7.84561086 12.461109,7.84661086 C12.572109,7.84661086 12.685109,7.84161086 12.794109,7.85861086 C13.008109,7.89261086 13.135109,8.02661086 13.159109,8.24161086 C13.183109,8.47061086 13.084109,8.64061086 12.864109,8.70861086 C12.742109,8.74661086 12.606109,8.75161086 12.477109,8.75261086 C10.933109,8.75461086 9.39010899,8.75661086 7.84710899,8.75061086 C7.67110899,8.74961086 7.55410899,8.79461086 7.44110899,8.94061086 C6.57510899,10.0656109 5.00010899,10.4666109 3.77610899,9.88661086 C2.37610899,9.22261086 1.65710899,7.79961086 2.01010899,6.35061086 C2.06110899,6.13861086 2.02110899,6.02761086 1.85310899,5.89961086 C1.34010899,5.50761086 0.844108989,5.09361086 0.335108989,4.69661086 C0.102108989,4.51461086 -0.00389101105,4.29161086 -1.66533454e-16,3.99361086 C0.00910898895,3.18661086 0.00110898895,2.37961086 0.00410898895,1.57261086 C0.00510898895,1.01761086 0.245108989,0.773610862 0.793108989,0.772610862 C1.93310899,0.769610862 3.07310899,0.769610862 4.21310899,0.772610862 C4.77410899,0.773610862 5.01610899,1.01961086 5.01910899,1.58961086 C5.02210899,2.26561086 5.02010899,2.94061086 5.02010899,3.61661086 C5.02010899,3.72461086 5.02010899,3.83261086 5.02010899,3.92961086 C5.47010899,4.05561086 5.82710899,4.01661086 6.20010899,3.73961086 C6.95110899,3.17961086 7.75010899,2.68461086 8.51810899,2.14861086 C9.39010899,1.53961086 10.273109,0.962610862 11.383109,0.830610862 C11.383109,0.683610862 11.375109,0.563610862 11.385109,0.444610862 C11.405109,0.183610862 11.595109,-0.0123891378 11.830109,0.000610862229 C12.083109,0.0146108622 12.271109,0.164610862 12.270109,0.413610862 C12.269109,0.692610862 12.380109,0.826610862 12.615109,0.958610862 C12.934109,1.13861086 13.004109,1.47861086 13.005109,1.82461086 C13.007109,2.36961086 13.006109,2.91361086 13.006109,3.48261086 C14.295109,3.48261086 15.569109,3.48261086 16.843109,3.48261086 C17.095109,2.75661086 17.409109,2.58161086 18.194109,2.68761086 C19.763109,2.89861086 21.333109,3.09461086 22.901109,3.30361086 C24.781109,3.55361086 26.469109,4.27461086 27.972109,5.42261086 C28.209109,5.60461086 28.438109,5.69061086 28.739109,5.68761086 C29.565109,5.67961086 30.161109,6.06761086 30.508109,6.82161086 C30.676109,7.18461086 30.836109,7.55161086 31.000109,7.91661086 L31.000109,8.34061086 Z" id="Fill-1" fill="#B0B0B0" mask="url(#mask-2)"></path>
            </g>
            <path d="M21.620409,7.74132042 C21.999409,7.74331086 22.318409,7.43131086 22.320409,7.05731086 C22.323409,6.69231086 21.996409,6.35931086 21.630409,6.35531086 C21.260409,6.35031086 20.939409,6.67031086 20.936409,7.04631086 C20.933409,7.43131086 21.236409,7.73931086 21.620409,7.74132042 M21.637409,8.65231086 C20.740409,8.65931086 20.023409,7.94631086 20.0244079,7.05131086 C20.025409,6.17331086 20.734409,5.45431086 21.611409,5.44331086 C22.482409,5.43231086 23.236409,6.18131086 23.234413,7.05531086 C23.231409,7.92831086 22.514409,8.64631086 21.637409,8.65231086" id="Fill-17" fill="#B0B0B0"></path>
            <path d="M5.70000899,7.04401086 C5.69600899,6.67101086 5.36900899,6.34801086 5.00100899,6.35401086 C4.63700899,6.36001086 4.30800899,6.69801086 4.31300899,7.06001086 C4.31800899,7.43501086 4.63900899,7.74601086 5.01700899,7.74201086 C5.40100899,7.73801086 5.70500899,7.42701086 5.70000899,7.04401086 M5.00800899,8.65301086 C4.12900899,8.65301086 3.41200899,7.94501086 3.40100899,7.06701086 C3.39000899,6.19401086 4.13600899,5.44201086 5.01100899,5.44300987 C5.89500899,5.44401086 6.61700899,6.17901086 6.61000899,7.06901086 C6.60200899,7.95101086 5.89200899,8.65301086 5.00800899,8.65301086" id="Fill-18" fill="#B0B0B0"></path>
        </g>
    </g>
</svg>